<svg xmlns="http://www.w3.org/2000/svg" xmlns:xlink="http://www.w3.org/1999/xlink" width="2000" zoomAndPan="magnify" viewBox="0 0 1500 374.999991" height="500" preserveAspectRatio="xMidYMid meet" version="1.0"><defs><g/><clipPath id="8d8f0f0a51"><path d="M 37.5 63.882812 L 516.75 63.882812 L 516.75 351.132812 L 37.5 351.132812 Z M 37.5 63.882812 " clip-rule="nonzero"/></clipPath><clipPath id="bcb993ec8a"><rect x="0" width="993" y="0" height="336"/></clipPath></defs><g clip-path="url(#8d8f0f0a51)"><path fill="#003366" d="M 701.253906 535.539062 L -2.171875 535.539062 C -37.660156 535.539062 -66.640625 506.558594 -66.640625 471.070312 L -66.640625 -136.539062 C -66.640625 -172.027344 -37.660156 -201.007812 -2.171875 -201.007812 L 701.253906 -201.007812 C 736.738281 -201.007812 765.71875 -172.027344 765.71875 -136.539062 L 765.71875 471.070312 C 765.71875 506.558594 736.738281 535.539062 701.253906 535.539062 Z M -2.171875 -177.347656 C -24.648438 -177.347656 -42.980469 -159.015625 -42.980469 -136.539062 L -42.980469 471.070312 C -42.980469 493.546875 -24.648438 511.878906 -2.171875 511.878906 L 701.253906 511.878906 C 723.726562 511.878906 742.0625 493.546875 742.0625 471.070312 L 742.0625 -136.539062 C 742.0625 -159.015625 723.726562 -177.347656 701.253906 -177.347656 Z M -2.171875 -177.347656 " fill-opacity="1" fill-rule="nonzero"/></g><path fill="#bb9af7" d="M 95.613281 285.554688 C 92.65625 285.554688 89.699219 284.371094 87.332031 282.203125 C 82.601562 277.667969 82.601562 270.175781 87.136719 265.445312 L 164.417969 186.785156 C 165.601562 185.402344 165.796875 184.023438 165.796875 183.234375 C 165.796875 182.445312 165.601562 180.867188 164.222656 179.6875 L 84.769531 103.785156 C 80.039062 99.25 79.839844 91.757812 84.375 87.027344 C 88.910156 82.292969 96.402344 82.097656 101.132812 86.632812 L 180.585938 162.535156 C 186.105469 167.855469 189.257812 175.152344 189.457031 182.839844 C 189.652344 190.527344 186.695312 197.824219 181.175781 203.34375 L 103.894531 282.003906 C 101.726562 284.371094 98.570312 285.554688 95.613281 285.554688 Z M 95.613281 285.554688 " fill-opacity="1" fill-rule="nonzero"/><path fill="#bb9af7" d="M 365.902344 285.554688 L 234.207031 285.554688 C 227.703125 285.554688 222.378906 280.230469 222.378906 273.726562 C 222.378906 267.21875 227.703125 261.898438 234.207031 261.898438 L 365.902344 261.898438 C 372.410156 261.898438 377.734375 267.21875 377.734375 273.726562 C 377.734375 280.230469 372.410156 285.554688 365.902344 285.554688 Z M 365.902344 285.554688 " fill-opacity="1" fill-rule="nonzero"/><g transform="matrix(1, 0, 0, 1, 416, 21)"><g clip-path="url(#bcb993ec8a)"><g fill="#c0caf5" fill-opacity="1"><g transform="translate(1.996252, 267.373632)"><g><path d="M 82.390625 2.75 C 63.535156 2.75 48.75 -2.375 38.03125 -12.625 C 27.320312 -22.882812 21.96875 -36.988281 21.96875 -54.9375 L 21.96875 -96.125 C 21.96875 -114.070312 27.320312 -128.171875 38.03125 -138.421875 C 48.75 -148.679688 63.535156 -153.8125 82.390625 -153.8125 C 101.253906 -153.8125 116.039062 -148.679688 126.75 -138.421875 C 137.46875 -128.171875 142.828125 -114.070312 142.828125 -96.125 L 142.828125 -68.390625 L 46.6875 -68.390625 L 46.6875 -56.296875 C 46.6875 -44.765625 49.84375 -35.703125 56.15625 -29.109375 C 62.476562 -22.515625 71.222656 -19.21875 82.390625 -19.21875 C 90.628906 -19.21875 97.769531 -20.5 103.8125 -23.0625 C 109.863281 -25.632812 114.351562 -29.390625 117.28125 -34.328125 L 142 -34.328125 C 138.882812 -22.796875 131.96875 -13.734375 121.25 -7.140625 C 110.539062 -0.546875 97.585938 2.75 82.390625 2.75 Z M 118.109375 -88.984375 L 118.109375 -96.125 C 118.109375 -107.476562 114.992188 -116.265625 108.765625 -122.484375 C 102.535156 -128.710938 93.742188 -131.828125 82.390625 -131.828125 C 71.046875 -131.828125 62.257812 -128.710938 56.03125 -122.484375 C 49.800781 -116.265625 46.6875 -107.476562 46.6875 -96.125 L 46.6875 -88.984375 Z M 118.109375 -88.984375 "/></g></g></g><g fill="#c0caf5" fill-opacity="1"><g transform="translate(166.781941, 267.373632)"><g><path d="M 24.171875 0 L 24.171875 -151.0625 L 47.515625 -151.0625 L 47.515625 -124.96875 L 49.71875 -124.96875 C 52.09375 -134.125 56.894531 -141.21875 64.125 -146.25 C 71.363281 -151.289062 80.382812 -153.8125 91.1875 -153.8125 C 98.695312 -153.8125 105.515625 -152.523438 111.640625 -149.953125 C 117.773438 -147.390625 122.992188 -143.773438 127.296875 -139.109375 C 131.597656 -134.441406 134.941406 -128.859375 137.328125 -122.359375 C 139.710938 -115.859375 140.90625 -108.582031 140.90625 -100.53125 L 140.90625 0 L 116.171875 0 L 116.171875 -96.40625 C 116.171875 -107.9375 113.242188 -116.90625 107.390625 -123.3125 C 101.535156 -129.726562 93.390625 -132.9375 82.953125 -132.9375 C 72.515625 -132.9375 64.226562 -129.5 58.09375 -122.625 C 51.957031 -115.757812 48.890625 -106.46875 48.890625 -94.75 L 48.890625 0 Z M 24.171875 0 "/></g></g></g><g fill="#c0caf5" fill-opacity="1"><g transform="translate(331.56763, 267.373632)"><g><path d="M 20.046875 -96.125 C 20.046875 -104.914062 21.234375 -112.878906 23.609375 -120.015625 C 25.992188 -127.160156 29.429688 -133.203125 33.921875 -138.140625 C 38.410156 -143.085938 43.859375 -146.9375 50.265625 -149.6875 C 56.671875 -152.4375 63.8125 -153.8125 71.6875 -153.8125 C 82.675781 -153.8125 92.015625 -151.203125 99.703125 -145.984375 C 107.390625 -140.765625 112.609375 -133.300781 115.359375 -123.59375 L 117.28125 -123.59375 L 117.28125 -151.0625 L 140.625 -151.0625 L 140.625 -10.984375 C 140.625 6.773438 135.40625 20.597656 124.96875 30.484375 C 114.53125 40.367188 99.882812 45.3125 81.03125 45.3125 L 43.9375 45.3125 L 43.9375 22.796875 L 81.03125 22.796875 C 92.007812 22.796875 100.566406 19.863281 106.703125 14 C 112.835938 8.144531 115.90625 -0.179688 115.90625 -10.984375 L 115.90625 -16.484375 L 117 -43.9375 L 115.359375 -43.9375 C 112.609375 -34.238281 107.390625 -26.78125 99.703125 -21.5625 C 92.015625 -16.34375 82.675781 -13.734375 71.6875 -13.734375 C 63.8125 -13.734375 56.710938 -15.101562 50.390625 -17.84375 C 44.078125 -20.59375 38.675781 -24.4375 34.1875 -29.375 C 29.707031 -34.320312 26.226562 -40.367188 23.75 -47.515625 C 21.28125 -54.660156 20.046875 -62.625 20.046875 -71.40625 Z M 45.3125 -71.40625 C 45.3125 -60.050781 48.46875 -51.171875 54.78125 -44.765625 C 61.101562 -38.359375 69.757812 -35.15625 80.75 -35.15625 C 91.738281 -35.15625 100.34375 -38.359375 106.5625 -44.765625 C 112.789062 -51.171875 115.90625 -60.050781 115.90625 -71.40625 L 115.90625 -96.125 C 115.90625 -107.476562 112.789062 -116.359375 106.5625 -122.765625 C 100.34375 -129.179688 91.738281 -132.390625 80.75 -132.390625 C 69.757812 -132.390625 61.101562 -129.179688 54.78125 -122.765625 C 48.46875 -116.359375 45.3125 -107.476562 45.3125 -96.125 Z M 45.3125 -71.40625 "/></g></g></g><g fill="#c0caf5" fill-opacity="1"><g transform="translate(496.353319, 267.373632)"><g><path d="M 30.765625 -151.0625 L 54.109375 -151.0625 L 54.109375 -124.96875 L 56.296875 -124.96875 C 58.679688 -133.9375 63.625 -140.984375 71.125 -146.109375 C 78.632812 -151.242188 87.882812 -153.8125 98.875 -153.8125 C 114.800781 -153.8125 127.296875 -148.820312 136.359375 -138.84375 C 145.429688 -128.863281 149.96875 -115.175781 149.96875 -97.78125 L 149.96875 -89.265625 L 125.25 -89.265625 L 125.25 -94.75 C 125.25 -106.65625 122.269531 -115.859375 116.3125 -122.359375 C 110.363281 -128.859375 101.894531 -132.109375 90.90625 -132.109375 C 80.101562 -132.109375 71.5 -128.765625 65.09375 -122.078125 C 58.6875 -115.398438 55.484375 -106.289062 55.484375 -94.75 L 55.484375 0 L 30.765625 0 Z M 30.765625 -151.0625 "/></g></g></g><g fill="#c0caf5" fill-opacity="1"><g transform="translate(661.139008, 267.373632)"><g><path d="M 17.296875 -43.9375 C 17.296875 -51.082031 18.53125 -57.535156 21 -63.296875 C 23.476562 -69.066406 27.050781 -73.96875 31.71875 -78 C 36.382812 -82.03125 42.015625 -85.144531 48.609375 -87.34375 C 55.203125 -89.539062 62.617188 -90.640625 70.859375 -90.640625 L 115.90625 -90.640625 L 115.90625 -103 C 115.90625 -112.332031 112.835938 -119.609375 106.703125 -124.828125 C 100.566406 -130.046875 91.734375 -132.65625 80.203125 -132.65625 C 71.773438 -132.65625 64.585938 -131.097656 58.640625 -127.984375 C 52.691406 -124.878906 48.707031 -120.578125 46.6875 -115.078125 L 21.96875 -115.078125 C 24.53125 -126.984375 31.078125 -136.414062 41.609375 -143.375 C 52.140625 -150.332031 65.1875 -153.8125 80.75 -153.8125 C 99.425781 -153.8125 114.070312 -149.460938 124.6875 -140.765625 C 135.3125 -132.066406 140.625 -119.9375 140.625 -104.375 L 140.625 0 L 118.109375 0 L 118.109375 -28.84375 L 115.90625 -28.84375 C 113.519531 -19.132812 107.929688 -11.441406 99.140625 -5.765625 C 90.359375 -0.0859375 79.648438 2.75 67.015625 2.75 C 51.816406 2.75 39.726562 -1.457031 30.75 -9.875 C 21.78125 -18.300781 17.296875 -29.65625 17.296875 -43.9375 Z M 72.515625 -17.578125 C 78.734375 -17.578125 84.5 -18.398438 89.8125 -20.046875 C 95.125 -21.691406 99.703125 -24.023438 103.546875 -27.046875 C 107.390625 -30.066406 110.410156 -33.59375 112.609375 -37.625 C 114.804688 -41.65625 115.90625 -46.050781 115.90625 -50.8125 L 115.90625 -71.40625 L 71.40625 -71.40625 C 62.25 -71.40625 55.0625 -69.023438 49.84375 -64.265625 C 44.625 -59.503906 42.015625 -52.914062 42.015625 -44.5 C 42.015625 -36.070312 44.671875 -29.476562 49.984375 -24.71875 C 55.296875 -19.957031 62.804688 -17.578125 72.515625 -17.578125 Z M 72.515625 -17.578125 "/></g></g></g><g fill="#c0caf5" fill-opacity="1"><g transform="translate(825.924697, 267.373632)"><g><path d="M 17.03125 -151.0625 L 36.53125 -151.0625 L 36.53125 -128.8125 L 38.453125 -128.8125 C 39.179688 -136.875 41.742188 -143.054688 46.140625 -147.359375 C 50.535156 -151.660156 56.394531 -153.8125 63.71875 -153.8125 C 71.039062 -153.8125 77.082031 -151.660156 81.84375 -147.359375 C 86.601562 -143.054688 89.898438 -136.875 91.734375 -128.8125 L 93.109375 -128.8125 C 93.835938 -136.875 96.398438 -143.054688 100.796875 -147.359375 C 105.191406 -151.660156 111.050781 -153.8125 118.375 -153.8125 C 127.71875 -153.8125 134.953125 -150.375 140.078125 -143.5 C 145.203125 -136.632812 147.765625 -127.160156 147.765625 -115.078125 L 147.765625 0 L 126.34375 0 L 126.34375 -115.078125 C 126.34375 -121.484375 124.921875 -126.378906 122.078125 -129.765625 C 119.242188 -133.160156 115.171875 -134.859375 109.859375 -134.859375 C 98.691406 -134.859375 93.109375 -127.804688 93.109375 -113.703125 L 93.109375 0 L 71.6875 0 L 71.6875 -115.078125 C 71.6875 -120.390625 70.445312 -125.015625 67.96875 -128.953125 C 65.5 -132.890625 61.242188 -134.859375 55.203125 -134.859375 C 49.710938 -134.859375 45.410156 -132.84375 42.296875 -128.8125 C 39.734375 -125.15625 38.453125 -120.117188 38.453125 -113.703125 L 38.453125 0 L 17.03125 0 Z M 17.03125 -151.0625 "/></g></g></g></g></g></svg>